<svg width="28" height="26" viewBox="0 0 28 26" fill="none" xmlns="http://www.w3.org/2000/svg">
<path d="M4.69231 4.69231L7.46154 15.7692H24.0769L26.8462 4.69231H4.69231ZM4.69231 4.69231L3.76923 1H1M12.0769 22.2308C12.0769 23.7602 10.8371 25 9.30769 25C7.77829 25 6.53846 23.7602 6.53846 22.2308C6.53846 20.7014 7.77829 19.4615 9.30769 19.4615C10.8371 19.4615 12.0769 20.7014 12.0769 22.2308ZM25 22.2308C25 23.7602 23.7602 25 22.2308 25C20.7014 25 19.4615 23.7602 19.4615 22.2308C19.4615 20.7014 20.7014 19.4615 22.2308 19.4615C23.7602 19.4615 25 20.7014 25 22.2308Z" stroke="#04080C" stroke-width="2" stroke-linecap="round" stroke-linejoin="round"/>
</svg>
