<svg width="393" height="221" viewBox="0 0 393 221" fill="none" xmlns="http://www.w3.org/2000/svg">
<path d="M-41.4373 2.99864C-40.1279 3.34949 -38.8275 3.73377 -37.5342 4.14478C-0.144619 16.1119 6.977 37.2263 12.1677 52.644C16.7609 66.2682 18.7957 70.7105 31.1375 73.4874C41.8139 75.8896 53.556 72.9968 65.9928 69.9391C81.5049 66.1222 98.8071 61.868 117.928 66.9913C121.041 67.8254 124.199 68.908 127.417 70.2861C139.323 75.382 148.83 82.6359 155.521 91.5498C162.858 90.4279 170.42 89.5385 178.174 88.9012C221.333 85.3715 266.164 89.998 307.849 102.271C354.298 115.949 395.182 138.946 426.103 168.773L405.259 181.807C342.983 121.721 250.466 106.058 184.656 111.435C178.108 111.973 171.732 112.7 165.548 113.615C165.81 114.86 166.038 116.124 166.226 117.4C168.751 134.718 164.027 154.464 152.936 172.998C142.199 190.939 126.46 205.663 109.772 213.384C88.649 223.155 65.0113 222.23 48.0755 210.965C31.6687 200.05 25.5858 182.516 32.1848 165.207C44.0709 134.063 79.2337 109.7 128.087 97.1295C124.997 94.267 121.203 91.8821 116.701 89.9523C104.928 84.9136 92.1934 88.042 77.4562 91.6725C62.5814 95.3306 45.725 99.4822 26.8791 95.242C-4.18559 88.2507 -10.516 69.4902 -15.1346 55.7876C-19.7837 41.9908 -23.1442 32.0209 -44.9716 25.0332C-56.8361 21.2381 -70.6292 21.9695 -82.8023 27.0607C-96.4279 32.7514 -106.516 43.1725 -111.221 56.397L-138.567 47.6657C-132.059 29.3436 -117.788 14.7922 -98.3937 6.68559C-80.6755 -0.716711 -60.1415 -2.01314 -41.4286 3.00096L-41.4373 2.99864ZM69.736 196.689C76.2915 198.446 84.7887 197.327 93.2645 193.408C120.002 181.03 140.982 146.125 138.319 119.121C97.7316 129.772 68.8714 149.448 59.383 174.315C56.2557 182.517 58.1952 190.194 64.4415 194.353C65.9958 195.386 67.7762 196.164 69.736 196.689Z" fill="#64B5F6"/>
</svg>
