<svg width="29" height="26" viewBox="0 0 29 26" fill="none" xmlns="http://www.w3.org/2000/svg">
<path d="M16.1495 1.97101C15.4006 0.676331 13.5916 0.676331 12.8427 1.97101L1.27385 21.971C0.502752 23.3041 1.42848 25 2.92722 25H26.065C27.5637 25 28.4894 23.3041 27.7183 21.971L16.1495 1.97101Z" stroke="#04080C" stroke-width="2" stroke-linejoin="round"/>
<path d="M14.6147 6C15.1727 6 15.6228 6.45667 15.6146 7.0146L15.4769 16.4443C15.469 16.9804 15.0322 17.4109 14.4961 17.4109C13.9599 17.4109 13.5231 16.9804 13.5153 16.4443L13.3776 7.0146C13.3694 6.45667 13.8195 6 14.3775 6H14.6147ZM14.4961 22C14.085 22 13.7322 21.863 13.4378 21.5891C13.1433 21.3152 12.9961 20.9871 12.9961 20.6047C12.9961 20.2222 13.1433 19.8941 13.4378 19.6202C13.7322 19.3463 14.085 19.2093 14.4961 19.2093C14.9072 19.2093 15.26 19.3463 15.5544 19.6202C15.8489 19.8941 15.9961 20.2222 15.9961 20.6047C15.9961 20.8579 15.9266 21.0904 15.7878 21.3023C15.6544 21.5142 15.4739 21.6848 15.2461 21.814C15.0239 21.938 14.7739 22 14.4961 22Z" fill="#04080C"/>
</svg>
