<svg width="26" height="26" viewBox="0 0 26 26" fill="none" xmlns="http://www.w3.org/2000/svg">
<path d="M21.2105 25.0001L13.6316 6.05268M25 3.52637L1 8.579" stroke="#1972D2" stroke-width="2"/>
<path d="M1 4.2C1 3.0799 1 2.51984 1.21799 2.09202C1.40973 1.71569 1.71569 1.40973 2.09202 1.21799C2.51984 1 3.07989 1 4.2 1H21.8C22.9201 1 23.4802 1 23.908 1.21799C24.2843 1.40973 24.5903 1.71569 24.782 2.09202C25 2.51984 25 3.07989 25 4.2V21.8C25 22.9201 25 23.4802 24.782 23.908C24.5903 24.2843 24.2843 24.5903 23.908 24.782C23.4802 25 22.9201 25 21.8 25H4.2C3.0799 25 2.51984 25 2.09202 24.782C1.71569 24.5903 1.40973 24.2843 1.21799 23.908C1 23.4802 1 22.9201 1 21.8V4.2Z" stroke="#1972D2" stroke-width="2" stroke-linecap="round"/>
<path d="M13.6312 16.8264C13.6312 19.6428 10.7469 21.5936 9.63769 22.2397C9.37127 22.3949 9.04896 22.3949 8.78254 22.2397C7.67329 21.5936 4.78906 19.6428 4.78906 16.8264C4.78906 14.1514 6.93121 12.3682 9.21011 12.3682C11.568 12.3682 13.6312 14.1514 13.6312 16.8264Z" stroke="#1972D2" stroke-width="2"/>
<circle cx="9.21042" cy="16.7895" r="1.26316" fill="#1972D2"/>
</svg>
