<?xml version="1.0" encoding="UTF-8"?>
<svg id="Calque_1" xmlns="http://www.w3.org/2000/svg" xmlns:xlink="http://www.w3.org/1999/xlink" version="1.1" viewBox="0 0 166 275">
  <!-- Generator: Adobe Illustrator 30.0.0, SVG Export Plug-In . SVG Version: 2.1.1 Build 123)  -->
  <defs>
    <style>
      .st0 {
        fill: none;
      }

      .st1 {
        fill: #f79c07;
      }

      .st2 {
        clip-path: url(#clippath);
      }
    </style>
    <clipPath id="clippath">
      <rect class="st0" x="22.1" y="18.9" width="140.3" height="253.2" transform="translate(-20.6 15.3) rotate(-8.6)"/>
    </clipPath>
  </defs>
  <g class="st2">
    <path class="st1" d="M161.9,137c1.1,7.3-.7,15-5.2,21.7-8.3,12.1-23,21.5-41.7,26.3-3.7,1-7.5,1.7-11.4,2.3.6,4.1,1.6,8.5,3,13.1,6,18.9,18.9,37.2,38.4,54.3l-11.1,12.6c-21.7-19.1-36.3-39.9-43.3-61.8-1.9-6-3.1-11.8-3.8-17.1-8.4,0-16.6-1.1-24.1-3.2-25.3-6.8-40.7-23.7-42.3-46.2-1.8-25.6,13.4-39.8,25.7-51.2,10.6-9.8,16.4-15.9,15.1-24.9-1-6.9-4.5-12.2-10.3-15.5-9.2-5.2-23.1-5-37.3.7l-6.2-15.6c19.2-7.7,38.2-7.6,52,.3,10.2,5.8,16.8,15.6,18.6,27.6,2.7,18.3-9.5,29.7-20.2,39.7-11.1,10.4-21.6,20.1-20.4,37.7,1.3,19.4,17,27.6,29.9,31.1,6.2,1.7,12.7,2.5,19.2,2.6.6-8.1,2.2-14.9,4.1-20.3,7.5-21.6,24.2-36.7,41.6-37.6,11.5-.6,21.4,4.5,26.6,13.7,1.7,3,2.8,6.2,3.3,9.6h0ZM103.3,170.3c17-2.9,32.2-10.5,39.5-21.1,3-4.4,3.4-9.5,1.2-13.5-2-3.6-6-5.4-11.1-5.2-10.5.6-21.4,11.4-26.6,26.3-1.3,3.6-2.4,8.2-3,13.5Z"/>
  </g>
</svg>