<svg width="166" height="275" viewBox="0 0 166 275" fill="none" xmlns="http://www.w3.org/2000/svg">
<g clip-path="url(#clip0_635_2558)">
<path d="M141.45 161.411C142.845 170.682 140.612 180.505 134.874 188.953C124.396 204.376 105.605 216.245 81.9556 222.374C77.2217 223.599 72.3811 224.563 67.4951 225.271C68.2362 230.511 69.4656 236.081 71.3417 241.96C78.9953 265.971 95.391 289.166 120.067 310.893L105.962 326.922C78.3399 302.602 59.8482 276.193 51.0054 248.447C48.565 240.791 47.0191 233.52 46.1483 226.701C35.5131 226.594 25.1036 225.252 15.5539 222.674C-16.5762 213.998 -36.1278 192.607 -38.1157 164.012C-40.3677 131.51 -21.0524 113.482 -5.52912 98.9939C7.86995 86.4853 15.3631 78.8464 13.6308 67.3321C12.3035 58.51 7.89421 51.8925 0.525932 47.6703C-11.1026 41.0053 -28.8364 41.3385 -46.9084 48.5716L-54.8365 28.745C-30.4005 18.9688 -6.34722 19.1153 11.1449 29.1493C24.0812 36.569 32.4617 48.9994 34.7429 64.1626C38.2333 87.3627 22.7222 101.842 9.03922 114.616C-5.05232 127.769 -18.3624 140.197 -16.8144 162.549C-15.1154 187.206 4.76041 197.657 21.1181 202.079C28.9377 204.189 37.2035 205.273 45.5114 205.427C46.229 195.13 48.3647 186.455 50.7192 179.683C60.2323 152.287 81.4419 133.083 103.495 131.905C118.071 131.122 130.7 137.623 137.286 149.291C139.437 153.097 140.824 157.2 141.459 161.423L141.45 161.411ZM67.0831 203.787C88.6924 200.111 108.023 190.482 117.214 176.953C120.975 171.415 121.543 164.831 118.69 159.768C116.106 155.19 111.114 152.864 104.636 153.211C91.357 153.92 77.4785 167.682 70.8833 186.67C69.2836 191.283 67.8139 197.031 67.0831 203.787Z" fill="#F79C07"/>
</g>
<defs>
<clipPath id="clip0_635_2558">
<rect width="321.617" height="178.168" fill="white" transform="translate(-11.1719 344.544) rotate(-98.5557)"/>
</clipPath>
</defs>
</svg>
