<?xml version="1.0" encoding="UTF-8"?>
<svg id="Calque_2" data-name="Calque 2" xmlns="http://www.w3.org/2000/svg" viewBox="0 0 280.32 429.74">
  <defs>
    <style>
      .cls-1 {
        fill: #777;
      }
    </style>
  </defs>
  <g id="Calque_1-2" data-name="Calque 1">
    <g id="Nh2E7V.tif">
      <path class="cls-1" d="M160.65,78.23c-4.65,7.34-13.07,14.2-18.76,21.17-54,66.15-54.89,163.05-1,229.63,9.83,12.15,21.99,20.53,26.22,36.68,12.51,47.79-42.96,83.56-81.16,52.24C37.64,378.33,3.98,295.26.42,233.9-3.94,158.86,25.47,63.47,83.96,13.48c46.15-39.44,107.89,15.43,76.69,64.75Z"/>
    </g>
    <g id="Nh2E7V.tif-2" data-name="Nh2E7V.tif">
      <path class="cls-1" d="M274.85,139.62c-3.01,4.04-8.45,7.82-12.13,11.66-34.91,36.43-35.48,89.79-.65,126.46,6.35,6.69,14.21,11.31,16.95,20.2,8.09,26.32-27.77,46.02-52.46,28.77-31.23-21.82-52.99-67.57-55.29-101.36-2.82-41.33,16.19-93.86,54-121.39,29.83-21.72,69.74,8.5,49.57,35.66Z"/>
    </g>
  </g>
</svg>