<svg width="167" height="198" viewBox="0 0 167 198" fill="none" xmlns="http://www.w3.org/2000/svg">
<path d="M119.831 275.119L134.99 262.616C114.618 228.635 102.963 190.974 101.155 155.527C102.221 155.097 103.289 154.642 104.366 154.155C117.076 148.431 130.093 138.896 141.026 127.291C151.707 115.959 159.78 103.392 163.752 91.9089C169.69 74.7486 167.382 58.2579 157.72 48.8662C148.307 39.7146 134.192 39.6913 119.96 48.8036C105.847 57.8422 94.1857 77.7317 87.9663 103.373C85.177 114.865 83.5472 127.115 83.07 139.804C75.4588 140.784 67.2205 139.857 59.5516 134.93C47.797 127.367 42.7398 115.194 40.7793 103.843C43.5905 103.22 46.3682 102.391 49.0872 101.363C62.7912 96.188 74.2279 86.2532 82.1469 72.6303C93.2283 53.5728 89.5472 36.3237 80.9876 27.6869C70.84 17.4473 55.0217 18.4601 42.5119 30.1582C31.5328 40.4335 23.523 62.0525 21.9322 84.2454C19.5907 83.8972 17.2297 83.3748 14.8708 82.664C-7.61903 75.9597 -33.0235 50.2831 -30.6196 2.11896e-05L-48.628 0.559659C-49.901 27.1685 -44.5 50.9632 -33.0051 69.3889C-22.7982 85.7515 -7.88128 97.5353 8.99635 102.568C13.4523 103.894 17.9533 104.741 22.437 105.103C25.1333 126.509 34.6357 143.311 49.7367 153.022C59.6514 159.396 71.0211 161.829 83.2953 160.305C83.7186 167.579 84.5019 174.928 85.6523 182.309C90.6468 214.394 102.149 245.614 119.831 275.119ZM141.836 62.9085C143.177 63.2936 144.365 63.9719 145.373 64.956C149.404 68.8723 150.056 77.0412 147.035 85.7749C141.641 101.364 123.256 123.23 101.296 134.031C101.907 124.848 103.242 115.901 105.321 107.328C110.065 87.7542 118.469 72.5027 127.79 66.535C133.204 63.0693 138.103 61.844 141.834 62.9148L141.836 62.9085ZM65.0179 41.5428C66.3488 41.9248 67.5066 42.6282 68.4216 43.552C72.2439 47.4085 71.8315 54.5903 67.3514 62.2981C60.9662 73.2779 51.2041 80.5628 39.9586 83.4211C41.3194 66.2629 47.3581 51.1287 53.2597 45.6033C57.6093 41.535 61.8216 40.6255 65.0179 41.5428Z" fill="#F38EAE"/>
</svg>
