<svg width="393" height="117" viewBox="0 0 393 117" fill="none" xmlns="http://www.w3.org/2000/svg">
<path d="M71.469 116.365C64.0754 116.365 56.938 114.187 50.8621 110.002C43.9882 105.267 39.0909 98.3303 37.0705 90.4722C32.0707 71.0038 35.9578 52.6397 48.2926 37.2834C28.3519 26.1917 3.87988 22.1955 -20.8557 26.0209L-25.1309 6.82705C6.54444 1.92793 37.9929 7.41275 63.4312 22.2627C63.6508 22.3908 63.863 22.5189 64.0826 22.647C78.3647 12.5681 96.9804 5.72277 117.609 3.22134C157.41 -1.59847 186.333 19.8528 211.852 38.7781C232.854 54.3602 252.692 69.0698 276.249 69.3077C287.435 69.4358 297.779 66.3853 305.707 60.8944C298.474 57.5327 292.501 53.1522 287.977 47.8077C277.779 35.7581 275.473 23.1839 281.644 13.3124C286.783 5.09436 297.054 0 308.488 0C308.525 0 308.569 0 308.605 0C320.933 0.0366062 331.906 5.9424 337.953 15.7956C344.256 26.0575 345.42 37.8691 341.613 49.1987C345.917 49.4549 350.5 49.4611 355.317 49.2109C378.252 48.0151 402.987 41.2186 421.486 31.0359L434.392 47.3257C412.628 59.302 383.61 67.2883 356.774 68.6915C347.235 69.1918 338.341 68.8623 330.23 67.7397C317.492 81.2535 297.72 89.0445 275.964 88.8249C243.659 88.5015 219.568 70.6377 196.274 53.3596C172.468 35.7032 149.98 19.023 120.977 22.5372C105.963 24.3553 92.4272 28.9982 81.8419 35.7642C93.7375 46.6912 101.775 59.5033 104.316 72.2362C108.064 90.9908 101.387 111.734 78.028 115.791C75.8319 116.176 73.6358 116.365 71.4543 116.365H71.469ZM66.0739 50.3945C58.7022 60.8212 56.6012 73.188 59.9832 86.3906C61.5059 92.3208 66.8864 97.7934 73.2624 96.683C82.5886 95.0602 82.5447 82.0833 81.2197 75.4453C79.536 67.0259 74.0897 58.1977 66.0739 50.3945ZM308.496 19.5233C305.831 19.5233 303.51 20.5971 302.427 22.3298C300.473 25.4535 302.229 30.7736 307.127 36.5574C309.879 39.8153 313.847 42.4937 318.832 44.5497C321.306 37.7044 320.772 30.6699 317.104 24.6909C314.352 20.2066 310.545 19.5294 308.525 19.5233H308.496Z" fill="#3CA167"/>
</svg>
