<svg width="27" height="32" viewBox="0 0 27 32" fill="none" xmlns="http://www.w3.org/2000/svg">
<path d="M25.8349 31.4075C25.4141 31.4714 24.8723 31.4436 24.4417 31.4589C22.5039 31.5255 20.1509 31.5367 18.8396 29.885C16.9088 27.45 15.2835 24.751 13.3805 22.2938C12.7485 21.4798 11.9609 20.6922 10.8621 20.6213C9.42444 20.5283 8.74657 21.4395 7.97563 22.4591C6.41015 24.5274 4.96968 26.6999 3.3903 28.7571C2.93191 29.3558 2.44851 29.9739 1.87899 30.4726C1.57478 30.7365 0.580208 31.4964 0.191268 31.3908C-0.319911 31.2533 0.338509 30.4587 0.489918 30.2407C2.49713 27.325 4.75576 24.2565 6.91438 21.4478C8.33401 19.6017 10.4732 17.2778 12.9443 17.0264C15.1905 16.7972 16.6837 18.0904 17.9533 19.742C20.7037 23.3175 23.154 27.1402 25.9002 30.7227C26.1086 30.9505 26.2558 31.345 25.8336 31.4089L25.8349 31.4075Z" fill="#F49FB4"/>
<path d="M23.0912 8.4403C21.6883 10.1503 19.3268 11.8505 17.2849 12.6992C13.1982 14.3994 8.71015 13.9813 4.59571 15.4204C3.22747 15.8982 1.97453 16.6747 0.684081 17.1428C-0.409119 17.5401 0.402099 16.4969 0.695194 16.1427C1.61476 15.0259 3.11218 13.7702 4.33595 12.9937C9.30606 9.8391 15.1402 10.8615 20.4631 8.65422C21.2049 8.34585 22.6037 7.50824 23.2579 7.35405C23.3829 7.32488 23.5093 7.31515 23.6357 7.33738C23.8677 7.48045 23.2093 8.29306 23.0898 8.43891L23.0912 8.4403Z" fill="#F49FB4"/>
<path d="M15.1474 5.69584C14.114 7.79195 11.1622 9.42828 9.3661 7.23493C7.42696 4.86795 9.40917 0.365967 12.4151 0.0242546C15.5822 -0.335515 16.2851 3.38998 15.1488 5.69584H15.1474Z" fill="#F49FB4"/>
</svg>
