<svg width="48" height="58" viewBox="0 0 48 58" fill="none" xmlns="http://www.w3.org/2000/svg">
<path d="M47.17 57.3455C46.4015 57.4622 45.4124 57.4114 44.6262 57.4393C41.0882 57.5611 36.7918 57.5814 34.3977 54.5658C30.8724 50.1199 27.905 45.192 24.4304 40.7055C23.2764 39.2193 21.8384 37.7813 19.8323 37.6519C17.2073 37.482 15.9697 39.1457 14.5621 41.0073C11.7038 44.7837 9.07374 48.7503 6.19008 52.5064C5.35314 53.5995 4.47054 54.7281 3.4307 55.6386C2.87527 56.1205 1.05936 57.5078 0.34922 57.3151C-0.5841 57.064 0.618057 55.6133 0.894503 55.2151C4.55931 49.8916 8.68317 44.2891 12.6244 39.161C15.2164 35.7903 19.1222 31.5473 23.6341 31.0882C27.7351 30.6698 30.4615 33.031 32.7796 36.0465C37.8013 42.5747 42.2751 49.5543 47.2892 56.0951C47.6696 56.5111 47.9384 57.2314 47.1674 57.348L47.17 57.3455Z" fill="#F5904C"/>
<path d="M42.1645 15.412C39.6029 18.534 35.2914 21.6383 31.5632 23.1879C24.1017 26.2923 15.9072 25.5289 8.39501 28.1564C5.89686 29.0288 3.60921 30.4465 1.25308 31.3012C-0.74291 32.0266 0.738229 30.1219 1.27337 29.4752C2.95233 27.4361 5.68635 25.1434 7.92074 23.7256C16.9953 17.9659 27.6473 19.8326 37.366 15.8025C38.7203 15.2395 41.2743 13.7102 42.4688 13.4287C42.6971 13.3754 42.9279 13.3576 43.1587 13.3982C43.5822 13.6595 42.3801 15.1431 42.1619 15.4094L42.1645 15.412Z" fill="#F5904C"/>
<path d="M27.6578 10.3998C25.7709 14.227 20.3813 17.2147 17.102 13.2099C13.5613 8.88818 17.1806 0.668203 22.669 0.0442855C28.4517 -0.612603 29.735 6.18961 27.6604 10.3998H27.6578Z" fill="#F5904C"/>
</svg>
