<svg width="82" height="99" viewBox="0 0 82 99" fill="none" xmlns="http://www.w3.org/2000/svg">
<path d="M81.0668 98.5526C79.7461 98.7531 78.0462 98.6659 76.695 98.7139C70.6146 98.9231 63.2309 98.9579 59.1162 93.7754C53.0576 86.1345 47.9578 77.6655 41.9864 69.9549C40.0032 67.4007 37.5317 64.9293 34.084 64.707C29.5727 64.415 27.4456 67.2743 25.0265 70.4736C20.1142 76.9638 15.5942 83.7808 10.6383 90.2361C9.19996 92.1147 7.68312 94.0544 5.89604 95.6192C4.94148 96.4473 1.82062 98.8315 0.600174 98.5003C-1.00384 98.0688 1.0622 95.5756 1.5373 94.8912C7.83568 85.7423 14.923 76.1138 21.6965 67.3004C26.1511 61.5077 32.8635 54.2155 40.6177 53.4266C47.6658 52.7074 52.3515 56.7654 56.3353 61.9479C64.9656 73.1673 72.6544 85.1625 81.2717 96.4037C81.9255 97.1186 82.3875 98.3564 81.0625 98.5569L81.0668 98.5526Z" fill="#64B5F6"/>
<path d="M72.4619 26.4854C68.0596 31.851 60.6497 37.1861 54.2424 39.8493C41.419 45.1844 27.3359 43.8724 14.4253 48.3881C10.132 49.8875 6.20038 52.324 2.15111 53.7929C-1.27921 55.0395 1.26629 51.7661 2.18598 50.6546C5.07147 47.1502 9.77018 43.2099 13.6102 40.7733C29.2058 30.8746 47.5125 34.0827 64.2152 27.1566C66.5427 26.189 70.932 23.5607 72.9849 23.0769C73.3772 22.9853 73.7739 22.9548 74.1705 23.0246C74.8984 23.4735 72.8324 26.0234 72.4575 26.481L72.4619 26.4854Z" fill="#64B5F6"/>
<path d="M47.5311 17.8728C44.2882 24.4502 35.0259 29.5848 29.3901 22.7023C23.3053 15.275 29.5252 1.14836 38.9575 0.076108C48.8954 -1.0528 51.1009 10.6373 47.5355 17.8728H47.5311Z" fill="#64B5F6"/>
</svg>
