<svg width="28" height="16" viewBox="0 0 28 16" fill="none" xmlns="http://www.w3.org/2000/svg">
<path d="M7 0.888889C7 0.397969 7.39175 0 7.875 0H10.5C10.9832 0 11.375 0.397969 11.375 0.888889C11.375 1.37981 10.9832 1.77778 10.5 1.77778V2.66667H17.7443L18.4199 0.607798C18.539 0.244827 18.8734 0 19.25 0H21C21.4832 0 21.875 0.397969 21.875 0.888889C21.875 1.37981 21.4832 1.77778 21 1.77778H19.8807L19.3354 3.43947L20.7477 5.73495C21.3647 5.47613 22.0409 5.33333 22.75 5.33333C25.6495 5.33333 28 7.72115 28 10.6667C28 13.6122 25.6495 16 22.75 16C19.8505 16 17.5 13.6122 17.5 10.6667C17.5 9.08007 18.182 7.65528 19.2644 6.67833L18.375 5.23271L14.742 11.1378C14.5821 11.3977 14.3017 11.5556 14 11.5556H10.4274C10.0108 14.078 7.85137 16 5.25 16C2.35051 16 0 13.6122 0 10.6667C0 7.72115 2.35051 5.33333 5.25 5.33333C5.95905 5.33333 6.63527 5.47613 7.25232 5.73495L8.75 3.30063V1.77778H7.875C7.39175 1.77778 7 1.37981 7 0.888889ZM9.625 5.23271L8.73561 6.67833C9.6114 7.4688 10.2251 8.55245 10.4274 9.77778H12.4213L9.625 5.23271ZM14 8.98951L16.7963 4.44444H11.2037L14 8.98951ZM8.63973 9.77778C8.48922 9.1837 8.19136 8.64971 7.7881 8.21841L6.82872 9.77778H8.63973ZM6.30461 7.27536C5.9718 7.16866 5.61752 7.11111 5.25 7.11111C3.317 7.11111 1.75 8.70299 1.75 10.6667C1.75 12.6303 3.317 14.2222 5.25 14.2222C6.88086 14.2222 8.2512 13.0891 8.63973 11.5556H5.25C4.93192 11.5556 4.63889 11.3802 4.48469 11.0976C4.33049 10.8149 4.33942 10.4696 4.508 10.1956L6.30461 7.27536ZM20.2119 8.21841C19.6158 8.85597 19.25 9.71792 19.25 10.6667C19.25 12.6303 20.817 14.2222 22.75 14.2222C24.683 14.2222 26.25 12.6303 26.25 10.6667C26.25 8.70299 24.683 7.11111 22.75 7.11111C22.3825 7.11111 22.0282 7.16866 21.6954 7.27536L23.492 10.1956C23.7481 10.6119 23.6235 11.1603 23.2137 11.4204C22.804 11.6806 22.2641 11.5541 22.008 11.1378L20.2119 8.21841Z" fill="#4D4D4D"/>
</svg>
