<svg width="24" height="18" viewBox="0 0 24 18" fill="none" xmlns="http://www.w3.org/2000/svg">
<path d="M6 10.5C6 11.3284 5.32843 12 4.5 12C3.67157 12 3 11.3284 3 10.5C3 9.67157 3.67157 9 4.5 9C5.32843 9 6 9.67157 6 10.5Z" fill="#4D4D4D"/>
<path d="M21 10.5C21 11.3284 20.3284 12 19.5 12C18.6716 12 18 11.3284 18 10.5C18 9.67157 18.6716 9 19.5 9C20.3284 9 21 9.67157 21 10.5Z" fill="#4D4D4D"/>
<path d="M9 9C8.17157 9 7.5 9.67157 7.5 10.5C7.5 11.3284 8.17157 12 9 12H15C15.8284 12 16.5 11.3284 16.5 10.5C16.5 9.67157 15.8284 9 15 9H9Z" fill="#4D4D4D"/>
<path d="M7.29271 3.41459L5.85854 6.28291C5.59439 6.81122 6.01643 7.42792 6.60519 7.38051C7.96811 7.27074 10.1298 7.125 12 7.125C13.8702 7.125 16.0319 7.27074 17.3948 7.38051C17.9836 7.42792 18.4056 6.81122 18.1415 6.28291L16.7073 3.41459C16.5803 3.1605 16.3206 3 16.0365 3H7.96353C7.67945 3 7.41975 3.1605 7.29271 3.41459Z" fill="#4D4D4D"/>
<path d="M3.78139 2.2728C4.37231 0.89399 5.72808 0 7.22819 0H16.7718C18.2719 0 19.6277 0.893988 20.2186 2.2728L21.4065 5.04446C21.5192 5.30763 21.7217 5.52231 21.9778 5.65036C22.7259 6.02443 23.2594 6.72296 23.4235 7.54317L23.9272 10.0616C23.9756 10.3038 24 10.5501 24 10.7971V11.4166C24 12.6375 23.4145 13.7307 22.5 14.4128V17.25C22.5 17.6642 22.1642 18 21.75 18H18.75C18.3358 18 18 17.6642 18 17.25V15.243C16.0626 15.315 13.8831 15.375 12 15.375C10.1169 15.375 7.93745 15.315 6 15.243V17.25C6 17.6642 5.66421 18 5.25 18H2.25C1.83579 18 1.5 17.6642 1.5 17.25V14.4128C0.585496 13.7307 0 12.6375 0 11.4166V10.7971C0 10.5501 0.0243926 10.3038 0.0728225 10.0616L0.576512 7.54317C0.740555 6.72296 1.27409 6.02443 2.02224 5.65036C2.27833 5.52231 2.48075 5.30763 2.59354 5.04446L3.78139 2.2728ZM7.22819 1.5C6.32813 1.5 5.51466 2.03639 5.16011 2.86368L3.97226 5.63534C3.71972 6.2246 3.26648 6.70529 2.69306 6.992C2.35893 7.15906 2.12065 7.47103 2.04738 7.83735L1.54369 10.3558C1.51464 10.5011 1.5 10.6489 1.5 10.7971V11.4166C1.5 12.6112 2.42888 13.589 3.61183 13.6428C5.94426 13.7488 9.29081 13.875 12 13.875C14.7092 13.875 18.0557 13.7488 20.3882 13.6428C21.5711 13.589 22.5 12.6112 22.5 11.4166V10.7971C22.5 10.6489 22.4854 10.5011 22.4563 10.3558L21.9526 7.83735C21.8794 7.47103 21.6411 7.15906 21.3069 6.992C20.7335 6.70529 20.2803 6.2246 20.0277 5.63534L18.8399 2.86368C18.4853 2.03639 17.6719 1.5 16.7718 1.5H7.22819Z" fill="#4D4D4D"/>
</svg>
