<svg width="21" height="25" viewBox="0 0 21 25" fill="none" xmlns="http://www.w3.org/2000/svg">
<path d="M1.47485 13.4227C1.00377 13.3478 0.490995 12.8068 0.43699 12.3234V6.42703L0.393679 6.33045L0.019923 6.23224C0.0177842 5.84483 0.0279435 5.45579 0.0242006 5.06838C0.0209924 4.77321 -0.129793 4.44929 0.362666 4.52254L0.430039 4.45526C0.507571 3.61207 0.182472 2.71408 0.942817 2.12103C1.34545 1.80687 2.30042 1.70486 2.81801 1.63758C3.25059 1.58115 3.69065 1.53666 4.12589 1.5372L3.8933 0.415668C3.57194 0.322342 3.19391 0.988101 2.95971 0.922448C2.53035 0.801993 3.30406 0.225219 3.46982 0.146C3.56927 0.098795 3.71685 0.0515895 3.82593 0.0396525C4.37506 -0.0205751 5.47869 -0.00483986 6.04173 0.0380248C6.52563 0.074921 6.91864 0.348929 7.16032 0.7575L7.07744 0.907255C6.8395 1.05918 6.42885 0.330481 6.1107 0.415668L5.87811 1.5372C6.73417 1.61154 7.81747 1.63216 8.6361 1.89748C9.79266 2.27296 9.54883 3.48673 9.57396 4.45526L9.64401 4.52471C9.7964 4.53393 9.94665 4.50952 9.98141 4.69725C10.0081 4.8405 10.0065 6.06946 9.97339 6.18395C9.92473 6.3527 9.7039 6.30983 9.56755 6.31037L9.56274 12.2718C9.55258 12.7086 8.96066 13.4237 8.53023 13.4237H7.21593L8.34843 15.7162C8.41152 15.8649 8.32544 16.0027 8.16342 16C7.91158 15.9766 7.84314 15.2154 7.56456 15.1996L2.39667 15.2018C2.12878 15.2528 2.04751 16.1367 1.72936 15.9766C1.63686 15.9148 1.61119 15.8198 1.65664 15.7162L2.78914 13.4237C2.38651 13.3787 1.8609 13.4851 1.47485 13.4237V13.4227ZM5.74069 0.41404H4.26492L4.52371 1.49325L5.5081 1.48783L5.74069 0.41404ZM3.9318 2.39178C3.5559 2.44984 3.48532 2.78028 3.82807 2.93926L6.27432 2.89694C6.485 2.7016 6.34277 2.42217 6.08397 2.38147C5.71342 2.32287 4.3093 2.33318 3.9318 2.39124V2.39178ZM4.81833 3.87685H1.56735C1.48447 3.87685 1.1829 4.18939 1.22033 4.32015C1.32406 5.81228 1.08612 7.48617 1.21926 8.95605C1.23049 9.08193 1.23263 9.13239 1.31283 9.23548C1.35133 9.2854 1.57644 9.44546 1.61333 9.44546H4.81833V3.87685ZM5.18728 9.44546H8.39227C8.42543 9.44546 8.62915 9.3033 8.66711 9.25664C8.74839 9.15626 8.77459 9.03581 8.78635 8.90993C8.92323 7.47857 8.67941 5.82367 8.78421 4.36844C8.82271 4.22031 8.55055 3.87685 8.43826 3.87685H5.18728V9.44546ZM1.76305 10.5328C1.50211 10.5746 1.22995 10.8546 1.18557 11.1177C1.06794 11.8144 1.8887 12.2648 2.39667 11.7846C2.91266 11.2973 2.45335 10.4216 1.76251 10.5323L1.76305 10.5328ZM7.98964 10.5339C7.03788 10.6625 7.25283 12.1801 8.28961 11.9615C9.07776 11.7954 8.92911 10.4064 7.98964 10.5339ZM6.79459 13.4302L3.23508 13.421L2.92763 14.0776L7.00954 14.0765L7.0582 13.9826L6.79459 13.4302ZM2.6282 14.8269C4.20877 14.796 5.7963 14.8269 7.37795 14.8269C7.38383 14.8269 7.49077 14.9175 7.49237 14.8035C7.49237 14.778 7.26512 14.3999 7.19401 14.4053L2.70519 14.4134L2.5143 14.8041C2.58649 14.9202 2.60948 14.8274 2.62873 14.8274L2.6282 14.8269Z" fill="#1972D2"/>
<path d="M9.38086 8.16406C11.8784 7.28124 15.0526 7.2829 17.5527 8.1416C18.1035 8.33077 18.6244 8.54923 19.0342 8.91699C19.462 9.30098 19.7285 9.80953 19.8535 10.5C20.096 11.8375 20.3633 13.8449 20.4531 15.2021V15.2031C20.5269 16.3231 20.4997 17.4768 20.4688 18.6074C20.4376 19.7464 20.4025 20.8612 20.4551 21.9395L20.4805 22.4639H19.3721V23.2754C19.372 23.4789 19.2938 23.653 19.2148 23.7783C19.1332 23.9078 19.0281 24.0211 18.9209 24.1143C18.721 24.2879 18.4305 24.4599 18.1367 24.4922L18.1377 24.4932C17.8639 24.5237 17.513 24.4497 17.2373 24.3281C17.0939 24.2649 16.9357 24.1735 16.8057 24.0449C16.6742 23.9148 16.5401 23.7119 16.54 23.4443V22.4629H10.46V23.4443C10.4599 23.5709 10.4105 23.6651 10.4072 23.6719C10.393 23.7013 10.3782 23.7251 10.3691 23.7393C10.35 23.769 10.3288 23.798 10.3115 23.8203C10.2755 23.8669 10.2303 23.9193 10.1865 23.9688C10.1423 24.0187 10.0942 24.0716 10.0488 24.1172C10.0151 24.1511 9.9484 24.2171 9.87891 24.2627L9.87793 24.2617C9.45561 24.5394 8.91377 24.5304 8.50586 24.3848C8.10557 24.2418 7.62814 23.8813 7.62793 23.2754V22.4639H6.51953L6.54492 21.9395C6.5971 20.8613 6.56232 19.7471 6.53125 18.6084C6.5004 17.4777 6.47312 16.3236 6.54688 15.2031C6.63582 13.8464 6.90397 11.8367 7.14648 10.5C7.26821 9.82776 7.52139 9.3267 7.93457 8.94434C8.33123 8.57728 8.83811 8.35712 9.38086 8.16504V8.16406ZM17.7939 18.5752C17.6943 18.5982 17.6317 18.6542 17.5908 18.7383C17.5449 18.8327 17.5299 18.9619 17.5596 19.0859C17.5889 19.2081 17.6516 19.2893 17.7197 19.3301C17.779 19.3655 17.9043 19.408 18.1436 19.333L18.1836 19.3145C18.2778 19.2582 18.3694 19.1061 18.3057 18.8613C18.2747 18.7424 18.2128 18.6576 18.1445 18.6113C18.0861 18.5717 17.982 18.5318 17.7939 18.5752ZM8.95703 18.5791C8.76119 18.6199 8.65636 18.773 8.66602 18.9834C8.67599 19.2 8.79905 19.334 8.97266 19.3535C9.21813 19.3809 9.3216 19.3088 9.36621 19.2617C9.42286 19.2019 9.46515 19.0959 9.45605 18.96C9.44689 18.824 9.38935 18.7092 9.31543 18.6436C9.25548 18.5904 9.15179 18.5386 8.95703 18.5791ZM9.2666 11.3135C9.26323 11.3163 9.25412 11.3246 9.24121 11.3496C9.22689 11.3774 9.21122 11.4199 9.19336 11.4863C9.17484 11.5553 9.16011 11.6266 9.13867 11.7246C8.98686 12.4182 8.79291 13.7351 8.72754 14.5801L8.70801 14.9102C8.70413 15.0137 8.69945 15.0714 8.69824 15.1465C8.69762 15.1857 8.70038 15.2161 8.70215 15.2402L18.2998 15.2451C18.3029 15.213 18.3056 15.1699 18.3037 15.1113C18.3006 15.0175 18.2943 14.9582 18.2881 14.8379V14.8369C18.2488 14.0549 18.03 12.4998 17.8604 11.7246C17.8409 11.6358 17.8297 11.5771 17.8135 11.5107C17.7984 11.4493 17.7851 11.406 17.7715 11.374C17.7679 11.3657 17.762 11.3598 17.7588 11.3535L9.27637 11.3086C9.27124 11.3115 9.26775 11.3125 9.2666 11.3135ZM14.5918 9.6084C13.842 9.58753 12.9953 9.58502 12.2578 9.60547C12.9909 9.62701 13.8432 9.62737 14.5918 9.6084Z" fill="#1972D2" stroke="#FAFCFE"/>
</svg>
