<svg width="16" height="24" viewBox="0 0 16 24" fill="none" xmlns="http://www.w3.org/2000/svg">
<path d="M14.655 12.8157L10.4967 12.0998C10.3829 12.0664 10.277 12.0259 10.1758 11.9628C9.70946 11.6728 9.23747 10.3243 8.93968 9.8023C8.92568 9.77748 8.91599 9.74214 8.88152 9.73972L8.33064 12.7084L11.399 15.9166C11.5121 16.0553 11.5856 16.2209 11.6206 16.396L11.6284 22.9451C11.6028 24.3292 9.28432 24.3557 9.20327 22.9991L9.1987 17.3657L6.5781 14.6231L6.52533 14.5411L5.85248 18.0755L5.79782 18.2635C4.53774 20.0477 3.17857 21.7709 1.85414 23.5108C0.994425 24.2445 -0.432324 23.1299 0.126098 22.1304C1.21898 20.6568 2.36086 19.2184 3.44109 17.7366L5.24667 8.10769L5.23294 8.06722L4.18367 8.71545C3.5609 9.7996 3.08891 11.0426 2.46021 12.1138C2.09134 12.7421 1.46749 12.9498 0.8598 12.4753C0.466428 12.1683 0.349574 11.7621 0.538317 11.2946C0.889418 10.4246 1.48069 9.37635 1.92064 8.525C2.21493 7.95555 2.41713 7.37152 2.95994 7.00385C3.91308 6.35805 5.11635 5.68015 6.12657 5.10503C6.36486 4.96934 6.63438 4.78968 6.89824 4.7182C7.87884 4.45195 8.88987 4.96422 9.40387 5.80343C10.1664 7.21075 10.7891 8.69117 11.4712 10.139C12.3667 10.2949 13.2689 10.4214 14.1634 10.5843C14.4181 10.6307 14.7886 10.6655 15.0193 10.7518C15.934 11.0936 15.6951 12.7907 14.655 12.8157Z" fill="#4D4D4D"/>
<path d="M10.1521 3.2023C9.39851 4.45991 7.59939 4.53922 6.71733 3.37036C5.72704 2.058 6.5329 0.158101 8.17666 0.0091957C9.90658 -0.147263 11.0377 1.72458 10.1521 3.2023Z" fill="#4D4D4D"/>
</svg>
