<svg width="24" height="27" viewBox="0 0 24 27" fill="none" xmlns="http://www.w3.org/2000/svg">
<path d="M1 12.9507C1 10.8726 1 9.83362 1.42006 8.92031C1.84012 8.00701 2.62901 7.33082 4.20677 5.97845L5.73727 4.6666C8.58907 2.2222 10.015 1 11.7135 1C13.412 1 14.8379 2.2222 17.6897 4.6666L19.2202 5.97845C20.7979 7.33082 21.5868 8.00701 22.0069 8.92031C22.4269 9.83362 22.4269 10.8726 22.4269 12.9507V19.4406C22.4269 22.3265 22.4269 23.7695 21.5304 24.666C20.6338 25.5626 19.1909 25.5626 16.305 25.5626H7.12198C4.23605 25.5626 2.79309 25.5626 1.89654 24.666C1 23.7695 1 22.3265 1 19.4406V12.9507Z" stroke="#04080C" stroke-width="2"/>
<path d="M15.5392 25.3866V17.2036C15.5392 16.6513 15.0915 16.2036 14.5392 16.2036H8.88672C8.33443 16.2036 7.88672 16.6513 7.88672 17.2036V25.3866" stroke="#04080C" stroke-width="2" stroke-linecap="round" stroke-linejoin="round"/>
</svg>
