<svg width="25" height="21" viewBox="0 0 25 21" fill="none" xmlns="http://www.w3.org/2000/svg">
<mask id="path-1-inside-1_1663_8591" fill="white">
<path d="M14.5449 0C16.2017 9.10873e-05 17.5449 1.3432 17.5449 3V3.44531H21.5625C23.2193 3.44531 24.5625 4.78848 24.5625 6.44531V17.6719C24.5625 19.3287 23.2194 20.6719 21.5625 20.6719H3C1.34315 20.6719 0 19.3287 0 17.6719V6.44531C2.94964e-05 4.78848 1.34316 3.44531 3 3.44531H7.01758V2.94531H7.01855C7.04772 1.3138 8.37914 0.000172641 10.0176 0H14.5449Z"/>
</mask>
<path d="M14.5449 0L14.545 -2H14.5449V0ZM17.5449 3H19.5449H17.5449ZM17.5449 3.44531H15.5449V5.44531H17.5449V3.44531ZM24.5625 6.44531H26.5625V6.44528L24.5625 6.44531ZM0 6.44531L-2 6.44528V6.44531H0ZM3 3.44531V1.44531V3.44531ZM7.01758 3.44531V5.44531H9.01758V3.44531H7.01758ZM7.01758 2.94531V0.945312H5.01758V2.94531H7.01758ZM7.01855 2.94531V4.94531H8.98312L9.01824 2.98106L7.01855 2.94531ZM10.0176 0V-2H10.0174L10.0176 0ZM14.5449 0L14.5448 2C15.0972 2.00003 15.5449 2.44788 15.5449 3H17.5449H19.5449C19.5449 0.238523 17.3062 -1.99985 14.545 -2L14.5449 0ZM17.5449 3H15.5449V3.44531H17.5449H19.5449V3H17.5449ZM17.5449 3.44531V5.44531H21.5625V3.44531V1.44531H17.5449V3.44531ZM21.5625 3.44531V5.44531C22.1147 5.44531 22.5625 5.89303 22.5625 6.44535L24.5625 6.44531L26.5625 6.44528C26.5625 3.68394 24.3239 1.44531 21.5625 1.44531V3.44531ZM24.5625 6.44531H22.5625V17.6719H24.5625H26.5625V6.44531H24.5625ZM24.5625 17.6719H22.5625C22.5625 18.2242 22.1148 18.6719 21.5625 18.6719V20.6719V22.6719C24.3239 22.6719 26.5625 20.4333 26.5625 17.6719H24.5625ZM21.5625 20.6719V18.6719H3V20.6719V22.6719H21.5625V20.6719ZM3 20.6719V18.6719C2.44772 18.6719 2 18.2242 2 17.6719H0H-2C-2 20.4333 0.238576 22.6719 3 22.6719V20.6719ZM0 17.6719H2V6.44531H0H-2V17.6719H0ZM0 6.44531L2 6.44535C2.00001 5.89303 2.44777 5.44531 3 5.44531V3.44531V1.44531C0.238559 1.44531 -1.99995 3.68394 -2 6.44528L0 6.44531ZM3 3.44531V5.44531H7.01758V3.44531V1.44531H3V3.44531ZM7.01758 3.44531H9.01758V2.94531H7.01758H5.01758V3.44531H7.01758ZM7.01758 2.94531V4.94531H7.01855V2.94531V0.945312H7.01758V2.94531ZM7.01855 2.94531L9.01824 2.98106C9.02795 2.43783 9.472 2.00006 10.0178 2L10.0176 0L10.0174 -2C7.28628 -1.99971 5.0675 0.189769 5.01887 2.90956L7.01855 2.94531ZM10.0176 0V2H14.5449V0V-2H10.0176V0Z" fill="#04080C" mask="url(#path-1-inside-1_1663_8591)"/>
<path d="M0 14.6426H23.6854" stroke="#04080C" stroke-width="2"/>
<path d="M10.5273 12.0586H14.4749" stroke="#04080C" stroke-width="2" stroke-linecap="round"/>
</svg>
